<svg xmlns="http://www.w3.org/2000/svg" xmlns:xlink="http://www.w3.org/1999/xlink" width="1920" zoomAndPan="magnify" viewBox="0 0 1440 809.999993" height="1080" preserveAspectRatio="xMidYMid meet" version="1.0"><defs><clipPath id="24eec81698"><path d="M 630 422 L 1125 422 L 1125 788.25 L 630 788.25 Z M 630 422 " clip-rule="nonzero"/></clipPath></defs><path fill="#ffffff" d="M 851.601562 631.667969 L 904.609375 631.667969 L 878.105469 569.828125 Z M 851.601562 631.667969 " fill-opacity="1" fill-rule="nonzero"/><g clip-path="url(#24eec81698)"><path fill="#ffffff" d="M 1071.582031 422.289062 L 745.585938 422.289062 L 745.585938 483.25 C 745.585938 508.867188 724.382812 530.070312 698.765625 530.070312 C 686.394531 530.070312 674.027344 525.652344 666.074219 515.9375 L 630.738281 482.363281 L 630.738281 734.148438 C 630.738281 764.1875 654.589844 788.039062 684.628906 788.039062 L 1070.695312 788.039062 C 1100.734375 788.039062 1124.585938 764.1875 1124.585938 734.148438 L 1124.585938 476.179688 C 1125.472656 446.144531 1101.617188 422.289062 1071.582031 422.289062 Z M 962.914062 714.710938 C 960.265625 715.597656 957.617188 716.480469 954.964844 716.480469 C 947.015625 716.480469 938.179688 711.179688 934.644531 703.226562 L 923.160156 674.957031 L 833.933594 674.957031 L 822.445312 703.226562 C 818.03125 713.828125 804.777344 719.128906 794.175781 714.710938 C 783.574219 710.296875 778.273438 697.042969 782.691406 686.441406 L 858.667969 505.335938 C 865.734375 489.433594 891.355469 489.433594 898.425781 505.335938 L 974.402344 686.441406 C 978.816406 697.042969 973.515625 710.296875 962.914062 714.710938 Z M 962.914062 714.710938 " fill-opacity="1" fill-rule="nonzero"/></g><path fill="#ffffff" d="M 979.703125 281.820312 L 979.703125 284.472656 L 957.617188 262.386719 C 948.78125 253.550781 935.527344 253.550781 926.695312 262.386719 C 917.859375 271.21875 917.859375 284.472656 926.695312 293.304688 L 985.003906 351.613281 C 989.417969 356.03125 994.71875 357.796875 1000.019531 357.796875 C 1005.320312 357.796875 1011.503906 355.148438 1015.039062 351.613281 L 1073.347656 293.304688 C 1082.183594 284.472656 1082.183594 271.21875 1073.347656 262.386719 C 1064.511719 253.550781 1051.261719 253.550781 1042.425781 262.386719 L 1021.222656 284.472656 L 1021.222656 281.820312 C 1021.222656 193.476562 949.664062 121.917969 861.320312 121.917969 C 848.949219 121.917969 840.117188 131.632812 840.117188 143.121094 C 840.117188 155.488281 849.835938 164.320312 861.320312 164.320312 C 927.578125 165.207031 979.703125 217.328125 979.703125 281.820312 Z M 979.703125 281.820312 " fill-opacity="1" fill-rule="nonzero"/><path fill="#ffffff" d="M 544.160156 632.550781 L 516.773438 632.550781 C 452.28125 632.550781 400.15625 580.429688 400.15625 515.9375 L 400.15625 503.566406 L 422.242188 525.652344 C 426.660156 530.070312 431.960938 531.839844 437.261719 531.839844 C 442.5625 531.839844 448.746094 530.070312 452.28125 525.652344 C 461.117188 516.820312 461.117188 503.566406 452.28125 494.734375 L 393.972656 436.425781 C 386.023438 428.472656 371.886719 428.472656 363.050781 436.425781 L 304.746094 494.734375 C 295.910156 503.566406 295.910156 516.820312 304.746094 525.652344 C 313.578125 534.488281 326.832031 534.488281 335.664062 525.652344 L 356.867188 503.566406 L 356.867188 515.9375 C 356.867188 604.28125 428.425781 675.839844 516.773438 675.839844 L 544.160156 675.839844 C 556.527344 675.839844 565.363281 666.121094 565.363281 654.636719 C 565.363281 642.269531 556.527344 632.550781 544.160156 632.550781 Z M 544.160156 632.550781 " fill-opacity="1" fill-rule="nonzero"/><path fill="#ffffff" d="M 726.152344 0 L 340.082031 0 C 310.046875 0 286.191406 23.851562 286.191406 53.890625 L 286.191406 310.976562 C 286.191406 341.011719 310.046875 364.867188 340.082031 364.867188 L 569.78125 364.867188 L 692.578125 487.664062 C 697.878906 492.082031 705.832031 488.550781 705.832031 482.363281 L 705.832031 365.75 L 726.152344 365.75 C 756.1875 365.75 780.042969 341.894531 780.042969 311.859375 L 780.042969 54.773438 C 780.042969 24.738281 756.1875 0 726.152344 0 Z M 620.136719 163.4375 L 591.867188 163.4375 C 589.214844 168.738281 586.566406 174.039062 583.914062 178.457031 C 575.964844 193.476562 566.246094 207.609375 555.644531 219.980469 L 607.769531 269.453125 C 616.601562 277.402344 616.601562 291.539062 608.652344 299.488281 C 607.769531 300.375 606 301.257812 605.117188 302.140625 C 601.585938 304.789062 597.167969 305.675781 592.75 305.675781 C 587.449219 305.675781 582.148438 303.90625 577.730469 299.488281 L 526.492188 250.898438 C 495.570312 280.9375 468.183594 300.375 466.414062 301.257812 C 462.882812 303.90625 458.464844 304.789062 454.046875 304.789062 C 450.515625 304.789062 446.980469 303.90625 444.328125 302.140625 C 442.5625 301.257812 440.796875 300.375 439.914062 298.605469 C 439.027344 297.722656 437.261719 295.957031 436.378906 295.074219 C 430.195312 285.355469 432.84375 272.101562 442.5625 265.035156 C 442.5625 265.035156 443.445312 264.152344 446.097656 263.269531 C 449.628906 260.617188 456.699219 255.316406 465.53125 248.25 C 487.617188 229.699219 521.191406 198.777344 543.277344 161.671875 L 446.097656 161.671875 C 434.613281 161.671875 424.894531 151.953125 424.894531 140.46875 C 424.894531 128.984375 434.613281 119.265625 446.097656 119.265625 L 511.472656 119.265625 L 511.472656 80.394531 C 511.472656 68.027344 521.191406 59.191406 532.675781 59.191406 C 544.160156 59.191406 553.878906 68.910156 553.878906 80.394531 L 553.878906 120.148438 L 619.253906 120.148438 C 630.738281 120.148438 640.457031 129.867188 640.457031 141.351562 C 641.339844 153.71875 631.621094 163.4375 620.136719 163.4375 Z M 620.136719 163.4375 " fill-opacity="1" fill-rule="nonzero"/><path fill="#ffffff" d="M 446.097656 265.035156 C 449.628906 262.386719 456.699219 257.085938 465.53125 250.015625 C 456.699219 257.085938 449.628906 262.386719 446.097656 265.035156 Z M 446.097656 265.035156 C 449.628906 262.386719 456.699219 257.085938 465.53125 250.015625 C 456.699219 257.085938 449.628906 262.386719 446.097656 265.035156 Z M 446.097656 265.035156 C 449.628906 262.386719 456.699219 257.085938 465.53125 250.015625 C 456.699219 257.085938 449.628906 262.386719 446.097656 265.035156 Z M 446.097656 265.035156 " fill-opacity="1" fill-rule="nonzero"/></svg>