<svg width="645" height="597" viewBox="0 0 645 597" fill="none" xmlns="http://www.w3.org/2000/svg">
<path d="M373.797 441.215L372.357 439.87H370.385H70.3844C33.5887 439.87 5 412.704 5 379.163V65.707C5 32.1613 33.5885 5 70.3844 5H574.616C611.303 5 640 33.1397 640 66.7834V380.24C640 413.781 611.411 440.947 574.616 440.947H548.076H543.076V445.947V588.129C543.076 589.341 542.256 590.752 540.205 591.55C538.256 592.308 535.892 592.155 533.99 590.762L373.797 441.215ZM419.404 372.486L419.692 372.284L419.948 372.045C419.949 372.044 419.981 372.015 420.058 371.957C420.138 371.895 420.246 371.817 420.389 371.72C420.689 371.517 421.034 371.301 421.486 371.02L421.629 370.931C422.374 370.47 423.619 369.698 424.57 368.807C437.091 357.113 437.084 336.411 423.269 324.751L359.012 267.816C371.749 253.425 383.421 237.269 393.125 220.173C396.202 215.375 399.252 209.802 402.223 204.274H436.153C453.564 204.274 468.979 190.463 467.692 172.154C467.578 155.16 452.366 141.493 435 141.493H354.616V98.0224C354.616 80.9401 339.355 67.1701 321.923 67.1701C304.634 67.1701 289.231 79.7335 289.231 98.0224V140.417H208.847C191.416 140.417 176.155 154.187 176.155 171.269C176.155 188.351 191.416 202.121 208.847 202.121H326.459C298.213 243.193 258.266 277.478 231.19 298.712C220.228 306.898 211.362 313.126 206.59 316.472C204.949 317.028 203.713 317.601 202.798 318.113C202.271 318.407 201.853 318.68 201.528 318.917C201.415 318.999 201.313 319.076 201.223 319.148C186.615 329.209 182.291 348.312 192.022 362.59L192.335 363.049L192.742 363.429C193.741 364.362 195.615 366.111 196.853 367.264C198.894 370.37 202.194 371.892 204.072 372.759C204.107 372.775 204.141 372.791 204.174 372.806C208.574 375.449 214.046 376.619 219.229 376.619C225.428 376.619 232.247 375.496 237.976 371.598C238.643 371.233 239.544 370.666 240.466 370.073C241.793 369.219 243.577 368.035 245.759 366.544C250.127 363.559 256.132 359.311 263.324 353.953C276.917 343.826 294.787 329.706 313.877 312.616L377.406 368.858C384.219 375.193 392.399 377.7 400.384 377.7C406.686 377.7 413.621 376.535 419.404 372.486Z" fill="#FCFCFC" stroke="black" stroke-width="10"/>
</svg>
